PathFileType	4	(X/Y/Z)	intermediate\S1_nor_fast_left\tmpqolbj2xf.trc
DataRate	CameraRate	NumFrames	NumMarkers	Units	OrigDataRate	OrigDataStartFrame	OrigNumFrames
250.0	250.0	12	18	mm	250.0	1856	3710
Frame#	Time	c7			r_should			l_should			clavicle			r_upa			r_elb_l			r_elb_m			r_low			r_wri_l			r_wri_m			r_met			l_upa			l_elb_l			l_elb_m			l_low			l_wri_l			l_wri_m			l_met			
		X	Y	Z	X	Y	Z	X	Y	Z	X	Y	Z	X	Y	Z	X	Y	Z	X	Y	Z	X	Y	Z	X	Y	Z	X	Y	Z	X	Y	Z	X	Y	Z	X	Y	Z	X	Y	Z	X	Y	Z	X	Y	Z	X	Y	Z	X	Y	Z	
1856	7.420000	948.181580	1420.971191	136.905594	1028.539795	1358.353760	319.393799	996.907654	1343.215942	-53.390579	1089.802612	1305.346069	127.729370	1037.010620	1144.867432	363.825439	1063.920166	1042.707642	363.623016	981.598694	1026.836426	303.164215	1022.296570	913.574768	384.314484	1093.902466	822.380005	337.700928	1033.771973	810.566833	376.863159	1123.509644	734.019653	345.122101	1054.204956	1133.989624	-75.485985	1070.135620	1088.002563	-82.481750	1087.216431	1044.271362	19.085999	1177.292114	1133.441772	-43.017757	1167.911621	1240.420044	-52.325794	1222.942871	1218.438232	-9.002389	1203.299194	1306.367554	-69.323563	
1857	7.424000	948.428772	1420.957520	136.890198	1028.641602	1358.294189	319.421448	997.292542	1343.233276	-53.361103	1090.105591	1305.379150	127.860008	1037.169922	1144.811401	363.777649	1064.013184	1042.666016	363.541229	982.722900	1026.642212	302.488159	1022.360229	913.512573	384.231110	1093.998291	822.286560	337.758484	1033.806274	810.502075	376.798981	1123.546753	733.902710	345.226685	1055.063599	1134.889893	-76.246819	1070.889893	1088.331177	-82.761978	1088.200806	1044.550537	19.105576	1177.112793	1134.911011	-42.877987	1166.396973	1241.787476	-51.993408	1221.737305	1220.448242	-8.772246	1200.896240	1308.218140	-68.867851	
1858	7.428000	948.664246	1420.944336	136.889450	1028.744751	1358.224365	319.449707	997.666138	1343.271118	-53.347782	1090.371338	1305.388184	127.930847	1037.321899	1144.735107	363.730011	1064.124268	1042.608276	363.432770	983.158020	1026.543823	302.205261	1022.405640	913.446777	384.154022	1094.093872	822.191589	337.816071	1033.838989	810.429260	376.727631	1123.583862	733.791687	345.329712	1055.705566	1135.330444	-76.612297	1071.614014	1088.663330	-83.026855	1089.005493	1044.687622	19.001242	1176.929810	1136.316528	-42.730137	1164.907349	1243.084961	-51.673988	1220.581787	1222.347778	-8.570120	1198.507080	1309.944336	-68.392242	
1859	7.432000	948.892334	1420.941040	136.906113	1028.844116	1358.155518	319.468475	998.031738	1343.323242	-53.333416	1090.635864	1305.408691	127.989563	1037.454834	1144.661865	363.680115	1064.231079	1042.546509	363.542969	983.407532	1026.487671	302.037567	1022.442322	913.376709	384.077209	1094.189941	822.101990	337.874390	1033.865234	810.351135	376.653290	1123.616821	733.681030	345.430481	1056.246216	1135.622925	-76.892921	1072.262085	1088.960938	-83.280151	1089.559570	1044.655151	18.741631	1176.716675	1137.666382	-42.576923	1163.432373	1244.295532	-51.345768	1219.397949	1224.145508	-8.342072	1196.106812	1311.563110	-67.918121	
1860	7.436000	949.112366	1420.928101	136.915878	1028.939331	1358.086060	319.498657	998.373779	1343.381226	-53.314610	1090.893555	1305.434692	128.040497	1037.578369	1144.584595	363.632843	1064.335327	1042.480835	363.568298	983.602722	1026.421265	301.903351	1022.471802	913.305969	383.994965	1094.282593	822.017517	337.934937	1033.879272	810.267700	376.577515	1123.650024	733.564270	345.537903	1056.755371	1135.885132	-77.152534	1072.878906	1089.247681	-83.522148	1090.220215	1044.815552	18.666803	1176.475708	1138.948486	-42.418793	1161.948853	1245.439941	-51.034966	1218.237915	1225.788086	-8.155119	1193.759888	1313.115234	-67.450928	
1861	7.440000	949.336365	1420.921387	136.926620	1029.035522	1358.010742	319.535889	998.696228	1343.441040	-53.278973	1091.151978	1305.463623	128.098373	1037.688843	1144.507935	363.610809	1064.434814	1042.407227	363.573853	983.800964	1026.341431	301.750763	1022.488098	913.232910	383.908813	1094.363281	821.928528	337.987366	1033.889526	810.180420	376.500244	1123.690796	733.451233	345.651978	1057.250977	1136.132202	-77.395081	1073.473267	1089.538574	-83.744583	1090.882080	1045.061768	18.655386	1176.214844	1140.169800	-42.252850	1160.485718	1246.514771	-50.720119	1217.086304	1227.338989	-7.996548	1191.459106	1314.554810	-67.022125	
1862	7.444000	949.555054	1420.912476	136.933685	1029.135376	1357.939819	319.575012	999.011658	1343.487183	-53.223499	1091.390869	1305.497803	128.131683	1037.793213	1144.440918	363.593719	1064.522949	1042.330566	363.505066	983.960815	1026.289551	301.635590	1022.506592	913.155212	383.820801	1094.438477	821.833130	338.033264	1033.901245	810.094849	376.423401	1123.730713	733.332642	345.763641	1057.713013	1136.359131	-77.614120	1074.010498	1089.821899	-83.954361	1091.493042	1045.300049	18.672905	1175.927368	1141.324463	-42.085464	1159.046875	1247.495728	-50.395325	1215.851929	1228.977539	-7.719398	1189.216675	1315.868286	-66.606567	
1863	7.448000	949.771851	1420.904663	136.954544	1029.241211	1357.876099	319.612701	999.312988	1343.526123	-53.154030	1091.612061	1305.528564	128.169342	1037.935547	1144.441406	363.580841	1064.601196	1042.251587	363.346863	983.562622	1026.276367	301.853333	1022.521362	913.081909	383.735474	1094.515015	821.746887	338.083160	1033.910522	810.007141	376.345581	1123.762817	733.219482	345.878265	1058.140503	1136.562134	-77.820526	1074.465576	1090.081421	-84.136162	1092.047119	1045.534424	18.703163	1175.609741	1142.414673	-41.917191	1157.602295	1248.422485	-50.087395	1214.679565	1230.453735	-7.518322	1186.994629	1317.093994	-66.193420	
1864	7.452000	949.973938	1420.898682	136.971756	1029.355469	1357.815796	319.651489	999.558777	1343.647217	-53.104954	1091.819214	1305.563477	128.208878	1038.125244	1144.519287	363.571716	1064.663574	1042.177124	363.372620	983.027832	1026.271851	302.139496	1022.535095	913.010681	383.651642	1094.586670	821.659729	338.129639	1033.915161	809.917358	376.271362	1123.788330	733.119141	345.995880	1058.527588	1136.743774	-78.023758	1074.858032	1090.315552	-84.280495	1092.533447	1045.751343	18.734299	1175.271851	1143.431885	-41.756035	1156.193237	1249.266235	-49.783070	1213.517944	1231.815552	-7.326982	1184.827148	1318.233765	-65.759674	
1865	7.456000	950.159302	1420.880005	136.991135	1029.469727	1357.749268	319.696228	999.748901	1343.869873	-53.104527	1092.015015	1305.612549	128.257996	1038.217163	1144.469116	363.537994	1064.728394	1042.104980	363.511322	984.097351	1026.159668	301.510864	1022.551880	912.937500	383.573578	1094.653687	821.572388	338.175415	1033.918579	809.825378	376.194611	1123.817261	733.007324	346.108948	1058.881104	1136.903564	-78.232674	1075.185791	1090.538452	-84.416924	1092.961426	1045.933228	18.783972	1174.898926	1144.395142	-41.592400	1154.805176	1250.050293	-49.483513	1212.371826	1233.043579	-7.138247	1182.711304	1319.265015	-65.353302	
1866	7.460000	950.345032	1420.862183	137.020798	1029.583130	1357.685181	319.740784	999.994507	1343.950928	-53.085884	1092.219116	1305.672485	128.319519	1038.271118	1144.388428	363.504395	1064.802368	1042.035400	363.547150	984.478455	1026.084961	301.273102	1022.563232	912.869873	383.499786	1094.717041	821.476746	338.230621	1033.918823	809.737183	376.113953	1123.845947	732.890015	346.229462	1059.217041	1137.050903	-78.434631	1075.463745	1090.754883	-84.571655	1093.337036	1046.089478	18.833649	1174.517578	1145.275146	-41.433849	1153.471558	1250.860596	-49.177612	1211.746704	1233.984009	-7.782591	1180.666626	1320.238647	-64.979576	
1867	7.464000	950.513672	1420.847290	137.039154	1029.703247	1357.619995	319.771393	1000.256409	1344.000122	-53.063183	1092.453735	1305.737305	128.404266	1038.327026	1144.304688	363.481995	1064.880249	1041.957397	363.554504	984.674866	1026.024658	301.141174	1022.579407	912.812134	383.428925	1094.783813	821.378601	338.284424	1033.920654	809.649048	376.030792	1123.880615	732.777954	346.346588	1059.545898	1137.191772	-78.606819	1075.706543	1090.944214	-84.708305	1093.660156	1046.232666	18.897955	1174.124268	1146.098145	-41.280178	1152.196533	1251.715820	-48.844269	1211.787842	1234.594604	-9.454852	1178.658203	1321.108154	-64.624062	
